{
	"asset":{
		"copyright":"Prashant",
		"generator":"Khronos glTF Blender I/O v4.2.57",
		"version":"2.0"
	},
	"extensionsUsed":[
		"KHR_texture_transform"
	],
	"extensionsRequired":[
		"KHR_texture_transform"
	],
	"scene":0,
	"scenes":[
		{
			"name":"Scene",
			"nodes":[
				0
			]
		}
	],
	"nodes":[
		{
			"mesh":0,
			"name":"Objects"
		}
	],
	"materials":[
		{
			"doubleSided":true,
			"name":"Ground",
			"normalTexture":{
				"extensions":{
					"KHR_texture_transform":{
						"offset":[
							0,
							-5.099999904632568
						],
						"scale":[
							6.099999904632568,
							6.099999904632568
						]
					}
				},
				"index":0
			},
			"pbrMetallicRoughness":{
				"baseColorTexture":{
					"extensions":{
						"KHR_texture_transform":{
							"offset":[
								0,
								-5.099999904632568
							],
							"scale":[
								6.099999904632568,
								6.099999904632568
							]
						}
					},
					"index":1
				},
				"metallicFactor":0,
				"metallicRoughnessTexture":{
					"extensions":{
						"KHR_texture_transform":{
							"offset":[
								0,
								-5.099999904632568
							],
							"scale":[
								6.099999904632568,
								6.099999904632568
							]
						}
					},
					"index":2
				}
			}
		},
		{
			"doubleSided":true,
			"name":"Football",
			"normalTexture":{
				"index":3,
				"scale":0.20000000298023224
			},
			"pbrMetallicRoughness":{
				"baseColorTexture":{
					"index":4
				},
				"metallicFactor":0,
				"metallicRoughnessTexture":{
					"index":5
				}
			}
		},
		{
			"doubleSided":true,
			"name":"Cube",
			"normalTexture":{
				"index":6
			},
			"pbrMetallicRoughness":{
				"baseColorTexture":{
					"index":7
				},
				"metallicRoughnessTexture":{
					"index":8
				}
			}
		},
		{
			"doubleSided":true,
			"emissiveTexture":{
				"extensions":{
					"KHR_texture_transform":{
						"offset":[
							0,
							-2.999999761581421
						],
						"scale":[
							3.999999761581421,
							3.999999761581421
						]
					}
				},
				"index":9
			},
			"name":"mONKEY",
			"normalTexture":{
				"extensions":{
					"KHR_texture_transform":{
						"offset":[
							0,
							-2.999999761581421
						],
						"scale":[
							3.999999761581421,
							3.999999761581421
						]
					}
				},
				"index":10
			},
			"pbrMetallicRoughness":{
				"baseColorTexture":{
					"extensions":{
						"KHR_texture_transform":{
							"offset":[
								0,
								-2.999999761581421
							],
							"scale":[
								3.999999761581421,
								3.999999761581421
							]
						}
					},
					"index":11
				},
				"metallicRoughnessTexture":{
					"extensions":{
						"KHR_texture_transform":{
							"offset":[
								0,
								-2.999999761581421
							],
							"scale":[
								3.999999761581421,
								3.999999761581421
							]
						}
					},
					"index":12
				}
			}
		},
		{
			"doubleSided":true,
			"name":"Teapot",
			"normalTexture":{
				"index":13
			},
			"pbrMetallicRoughness":{
				"baseColorTexture":{
					"index":14
				},
				"metallicFactor":0,
				"metallicRoughnessTexture":{
					"index":15
				}
			}
		}
	],
	"meshes":[
		{
			"name":"Plane",
			"primitives":[
				{
					"attributes":{
						"POSITION":0,
						"NORMAL":1,
						"TEXCOORD_0":2,
						"TANGENT":3
					},
					"indices":4,
					"material":0
				},
				{
					"attributes":{
						"POSITION":5,
						"NORMAL":6,
						"TEXCOORD_0":7,
						"TANGENT":8
					},
					"indices":9,
					"material":1
				},
				{
					"attributes":{
						"POSITION":10,
						"NORMAL":11,
						"TEXCOORD_0":12,
						"TANGENT":13
					},
					"indices":14,
					"material":2
				},
				{
					"attributes":{
						"POSITION":15,
						"NORMAL":16,
						"TEXCOORD_0":17,
						"TANGENT":18
					},
					"indices":19,
					"material":3
				},
				{
					"attributes":{
						"POSITION":20,
						"NORMAL":21,
						"TEXCOORD_0":22,
						"TANGENT":23
					},
					"indices":24,
					"material":4
				}
			]
		}
	],
	"textures":[
		{
			"sampler":0,
			"source":0
		},
		{
			"sampler":0,
			"source":1
		},
		{
			"sampler":0,
			"source":2
		},
		{
			"sampler":0,
			"source":3
		},
		{
			"sampler":0,
			"source":4
		},
		{
			"sampler":0,
			"source":5
		},
		{
			"sampler":0,
			"source":6
		},
		{
			"sampler":0,
			"source":7
		},
		{
			"sampler":0,
			"source":8
		},
		{
			"sampler":0,
			"source":9
		},
		{
			"sampler":0,
			"source":10
		},
		{
			"sampler":0,
			"source":11
		},
		{
			"sampler":0,
			"source":12
		},
		{
			"sampler":0,
			"source":13
		},
		{
			"sampler":0,
			"source":14
		},
		{
			"sampler":0,
			"source":15
		}
	],
	"images":[
		{
			"mimeType":"image/jpeg",
			"name":"stone_bricks_wall_06_normal_gl_1k",
			"uri":"textures/stone_bricks_wall_06_normal_gl_1k.jpg"
		},
		{
			"mimeType":"image/jpeg",
			"name":"stone_bricks_wall_06_color_1k",
			"uri":"textures/stone_bricks_wall_06_color_1k.jpg"
		},
		{
			"mimeType":"image/jpeg",
			"name":"stone_bricks_wall_06_roughness_1k",
			"uri":"textures/stone_bricks_wall_06_roughness_1k.jpg"
		},
		{
			"mimeType":"image/jpeg",
			"name":"concrete_wall_05_normal_gl_1k",
			"uri":"textures/concrete_wall_05_normal_gl_1k.jpg"
		},
		{
			"mimeType":"image/jpeg",
			"name":"concrete_wall_05_color_1k",
			"uri":"textures/concrete_wall_05_color_1k.jpg"
		},
		{
			"mimeType":"image/jpeg",
			"name":"concrete_wall_05_roughness_1k",
			"uri":"textures/concrete_wall_05_roughness_1k.jpg"
		},
		{
			"mimeType":"image/jpeg",
			"name":"marble_tiles_01_normal_gl_1k",
			"uri":"textures/marble_tiles_01_normal_gl_1k.jpg"
		},
		{
			"mimeType":"image/jpeg",
			"name":"marble_tiles_01_color_1k",
			"uri":"textures/marble_tiles_01_color_1k.jpg"
		},
		{
			"mimeType":"image/jpeg",
			"name":"marble_tiles_01_metallic_1k-marble_tiles_01_roughness_1k",
			"uri":"textures/marble_tiles_01_metallic_1k-marble_tiles_01_roughness_1k.jpg"
		},
		{
			"mimeType":"image/jpeg",
			"name":"mystic_ground_tiles_01_emissive_1k",
			"uri":"textures/mystic_ground_tiles_01_emissive_1k.jpg"
		},
		{
			"mimeType":"image/jpeg",
			"name":"mystic_ground_tiles_01_normal_gl_1k",
			"uri":"textures/mystic_ground_tiles_01_normal_gl_1k.jpg"
		},
		{
			"mimeType":"image/jpeg",
			"name":"mystic_ground_tiles_01_baseColor_1k",
			"uri":"textures/mystic_ground_tiles_01_baseColor_1k.jpg"
		},
		{
			"mimeType":"image/jpeg",
			"name":"mystic_ground_tiles_01_metallic_1k-mystic_ground_tiles_01_roughness_1k",
			"uri":"textures/mystic_ground_tiles_01_metallic_1k-mystic_ground_tiles_01_roughness_1k.jpg"
		},
		{
			"mimeType":"image/jpeg",
			"name":"wood_planks_03_normal_gl_1k",
			"uri":"textures/wood_planks_03_normal_gl_1k.jpg"
		},
		{
			"mimeType":"image/jpeg",
			"name":"wood_planks_03_color_1k",
			"uri":"textures/wood_planks_03_color_1k.jpg"
		},
		{
			"mimeType":"image/jpeg",
			"name":"wood_planks_03_roughness_1k",
			"uri":"textures/wood_planks_03_roughness_1k.jpg"
		}
	],
	"accessors":[
		{
			"bufferView":0,
			"componentType":5126,
			"count":256,
			"max":[
				7.064393997192383,
				5.769834518432617,
				7.064393997192383
			],
			"min":[
				-7.064393997192383,
				-0.16430053114891052,
				-7.064393997192383
			],
			"type":"VEC3"
		},
		{
			"bufferView":1,
			"componentType":5126,
			"count":256,
			"type":"VEC3"
		},
		{
			"bufferView":2,
			"componentType":5126,
			"count":256,
			"type":"VEC2"
		},
		{
			"bufferView":3,
			"componentType":5126,
			"count":256,
			"type":"VEC4"
		},
		{
			"bufferView":4,
			"componentType":5123,
			"count":888,
			"type":"SCALAR"
		},
		{
			"bufferView":5,
			"componentType":5126,
			"count":540,
			"max":[
				-2.033468723297119,
				1.7005031108856201,
				4.177943229675293
			],
			"min":[
				-3.766531467437744,
				0.0026369094848632812,
				2.4220566749572754
			],
			"type":"VEC3"
		},
		{
			"bufferView":6,
			"componentType":5126,
			"count":540,
			"type":"VEC3"
		},
		{
			"bufferView":7,
			"componentType":5126,
			"count":540,
			"type":"VEC2"
		},
		{
			"bufferView":8,
			"componentType":5126,
			"count":540,
			"type":"VEC4"
		},
		{
			"bufferView":9,
			"componentType":5123,
			"count":2508,
			"type":"SCALAR"
		},
		{
			"bufferView":10,
			"componentType":5126,
			"count":24,
			"max":[
				5.199999809265137,
				1.2000000476837158,
				2.9000000953674316
			],
			"min":[
				4,
				0,
				1.6999999284744263
			],
			"type":"VEC3"
		},
		{
			"bufferView":11,
			"componentType":5126,
			"count":24,
			"type":"VEC3"
		},
		{
			"bufferView":12,
			"componentType":5126,
			"count":24,
			"type":"VEC2"
		},
		{
			"bufferView":13,
			"componentType":5126,
			"count":24,
			"type":"VEC4"
		},
		{
			"bufferView":14,
			"componentType":5123,
			"count":36,
			"type":"SCALAR"
		},
		{
			"bufferView":15,
			"componentType":5126,
			"count":1409,
			"max":[
				4.876452445983887,
				1.6007559299468994,
				-2.247049570083618
			],
			"min":[
				2.1420772075653076,
				0.013409793376922607,
				-4.343172550201416
			],
			"type":"VEC3"
		},
		{
			"bufferView":16,
			"componentType":5126,
			"count":1409,
			"type":"VEC3"
		},
		{
			"bufferView":17,
			"componentType":5126,
			"count":1409,
			"type":"VEC2"
		},
		{
			"bufferView":18,
			"componentType":5126,
			"count":1409,
			"type":"VEC4"
		},
		{
			"bufferView":19,
			"componentType":5123,
			"count":2901,
			"type":"SCALAR"
		},
		{
			"bufferView":20,
			"componentType":5126,
			"count":1330,
			"max":[
				-1.6847753524780273,
				1.2653321027755737,
				-2.702406406402588
			],
			"min":[
				-4.25837516784668,
				0.0053321123123168945,
				-4.302406311035156
			],
			"type":"VEC3"
		},
		{
			"bufferView":21,
			"componentType":5126,
			"count":1330,
			"type":"VEC3"
		},
		{
			"bufferView":22,
			"componentType":5126,
			"count":1330,
			"type":"VEC2"
		},
		{
			"bufferView":23,
			"componentType":5126,
			"count":1330,
			"type":"VEC4"
		},
		{
			"bufferView":24,
			"componentType":5123,
			"count":4884,
			"type":"SCALAR"
		}
	],
	"bufferViews":[
		{
			"buffer":0,
			"byteLength":3072,
			"byteOffset":0,
			"target":34962
		},
		{
			"buffer":0,
			"byteLength":3072,
			"byteOffset":3072,
			"target":34962
		},
		{
			"buffer":0,
			"byteLength":2048,
			"byteOffset":6144,
			"target":34962
		},
		{
			"buffer":0,
			"byteLength":4096,
			"byteOffset":8192,
			"target":34962
		},
		{
			"buffer":0,
			"byteLength":1776,
			"byteOffset":12288,
			"target":34963
		},
		{
			"buffer":0,
			"byteLength":6480,
			"byteOffset":14064,
			"target":34962
		},
		{
			"buffer":0,
			"byteLength":6480,
			"byteOffset":20544,
			"target":34962
		},
		{
			"buffer":0,
			"byteLength":4320,
			"byteOffset":27024,
			"target":34962
		},
		{
			"buffer":0,
			"byteLength":8640,
			"byteOffset":31344,
			"target":34962
		},
		{
			"buffer":0,
			"byteLength":5016,
			"byteOffset":39984,
			"target":34963
		},
		{
			"buffer":0,
			"byteLength":288,
			"byteOffset":45000,
			"target":34962
		},
		{
			"buffer":0,
			"byteLength":288,
			"byteOffset":45288,
			"target":34962
		},
		{
			"buffer":0,
			"byteLength":192,
			"byteOffset":45576,
			"target":34962
		},
		{
			"buffer":0,
			"byteLength":384,
			"byteOffset":45768,
			"target":34962
		},
		{
			"buffer":0,
			"byteLength":72,
			"byteOffset":46152,
			"target":34963
		},
		{
			"buffer":0,
			"byteLength":16908,
			"byteOffset":46224,
			"target":34962
		},
		{
			"buffer":0,
			"byteLength":16908,
			"byteOffset":63132,
			"target":34962
		},
		{
			"buffer":0,
			"byteLength":11272,
			"byteOffset":80040,
			"target":34962
		},
		{
			"buffer":0,
			"byteLength":22544,
			"byteOffset":91312,
			"target":34962
		},
		{
			"buffer":0,
			"byteLength":5802,
			"byteOffset":113856,
			"target":34963
		},
		{
			"buffer":0,
			"byteLength":15960,
			"byteOffset":119660,
			"target":34962
		},
		{
			"buffer":0,
			"byteLength":15960,
			"byteOffset":135620,
			"target":34962
		},
		{
			"buffer":0,
			"byteLength":10640,
			"byteOffset":151580,
			"target":34962
		},
		{
			"buffer":0,
			"byteLength":21280,
			"byteOffset":162220,
			"target":34962
		},
		{
			"buffer":0,
			"byteLength":9768,
			"byteOffset":183500,
			"target":34963
		}
	],
	"samplers":[
		{
			"magFilter":9729,
			"minFilter":9987
		}
	],
	"buffers":[
		{
			"byteLength":193268,
			"uri":"single%20geo6.bin"
		}
	]
}
